<?xml version="1.0" encoding="UTF-8" standalone="no"?><!DOCTYPE svg PUBLIC "-//W3C//DTD SVG 1.1//EN" "http://www.w3.org/Graphics/SVG/1.1/DTD/svg11.dtd"><!-- Generated by graphviz version 2.40.1 (20161225.0304)
 --><!-- Title: %0 Pages: 1 --><svg xmlns="http://www.w3.org/2000/svg" xmlns:xlink="http://www.w3.org/1999/xlink" width="1142pt" height="408pt" viewBox="0.00 0.00 1142.00 408.00">
<g id="graph0" class="graph" transform="scale(1 1) rotate(0) translate(4 404)">
<title>%0</title>
<polygon fill="#ffffff" stroke="transparent" points="-4,4 -4,-404 1138,-404 1138,4 -4,4"/>
<!-- 188.88.191.0/24 -->
<g id="node1" class="node">
<title>188.88.191.0/24</title>
<polygon fill="#dddddd" stroke="#000000" points="183.3047,-145.5 183.3047,-181.5 290.6953,-181.5 290.6953,-145.5 183.3047,-145.5"/>
<text text-anchor="middle" x="237" y="-159.3" font-family="Times,serif" font-size="14.00" fill="#000000">188.88.191.0/24</text>
</g>
<!-- 188.88.191.0/25 -->
<g id="node2" class="node">
<title>188.88.191.0/25</title>
<polygon fill="#dddddd" stroke="#000000" points="45.3047,-72.5 45.3047,-108.5 152.6953,-108.5 152.6953,-72.5 45.3047,-72.5"/>
<text text-anchor="middle" x="99" y="-86.3" font-family="Times,serif" font-size="14.00" fill="#000000">188.88.191.0/25</text>
</g>
<!-- 188.88.191.0/24&#45;&#45;188.88.191.0/25 -->
<g id="edge27" class="edge">
<title>188.88.191.0/24--188.88.191.0/25</title>
<path fill="none" stroke="#000000" d="M202.8876,-145.4551C181.6566,-134.2241 154.4453,-119.8298 133.1982,-108.5904"/>
</g>
<!-- 188.88.191.128/25 -->
<g id="node3" class="node">
<title>188.88.191.128/25</title>
<polygon fill="#dddddd" stroke="#000000" points="176.3047,-72.5 176.3047,-108.5 297.6953,-108.5 297.6953,-72.5 176.3047,-72.5"/>
<text text-anchor="middle" x="237" y="-86.3" font-family="Times,serif" font-size="14.00" fill="#000000">188.88.191.128/25</text>
</g>
<!-- 188.88.191.0/24&#45;&#45;188.88.191.128/25 -->
<g id="edge28" class="edge">
<title>188.88.191.0/24--188.88.191.128/25</title>
<path fill="none" stroke="#000000" d="M237,-145.4551C237,-134.2241 237,-119.8298 237,-108.5904"/>
</g>
<!-- rest1 -->
<g id="node7" class="node">
<title>rest1</title>
<text text-anchor="middle" x="27" y="-13.8" font-family="Times,serif" font-size="14.00" fill="#000000">...</text>
</g>
<!-- 188.88.191.0/25&#45;&#45;rest1 -->
<g id="edge29" class="edge">
<title>188.88.191.0/25--rest1</title>
<path fill="none" stroke="#000000" d="M80.8314,-72.2052C69.8334,-61.1308 55.865,-47.0654 44.9134,-36.0378"/>
</g>
<!-- rest11 -->
<g id="node15" class="node">
<title>rest11</title>
<text text-anchor="middle" x="99" y="-13.8" font-family="Times,serif" font-size="14.00" fill="#000000">...</text>
</g>
<!-- 188.88.191.0/25&#45;&#45;rest11 -->
<g id="edge30" class="edge">
<title>188.88.191.0/25--rest11</title>
<path fill="none" stroke="#000000" d="M99,-72.2052C99,-61.1308 99,-47.0654 99,-36.0378"/>
</g>
<!-- rest2 -->
<g id="node8" class="node">
<title>rest2</title>
<text text-anchor="middle" x="171" y="-13.8" font-family="Times,serif" font-size="14.00" fill="#000000">...</text>
</g>
<!-- 188.88.191.128/25&#45;&#45;rest2 -->
<g id="edge31" class="edge">
<title>188.88.191.128/25--rest2</title>
<path fill="none" stroke="#000000" d="M220.3454,-72.2052C210.2639,-61.1308 197.4596,-47.0654 187.4206,-36.0378"/>
</g>
<!-- rest22 -->
<g id="node16" class="node">
<title>rest22</title>
<text text-anchor="middle" x="243" y="-13.8" font-family="Times,serif" font-size="14.00" fill="#000000">...</text>
</g>
<!-- 188.88.191.128/25&#45;&#45;rest22 -->
<g id="edge32" class="edge">
<title>188.88.191.128/25--rest22</title>
<path fill="none" stroke="#000000" d="M238.5141,-72.2052C239.4306,-61.1308 240.5946,-47.0654 241.5072,-36.0378"/>
</g>
<!-- 188.88.190.0/23 -->
<g id="node4" class="node">
<title>188.88.190.0/23</title>
<polygon fill="#dddddd" stroke="#000000" points="381.3047,-218.5 381.3047,-254.5 488.6953,-254.5 488.6953,-218.5 381.3047,-218.5"/>
<text text-anchor="middle" x="435" y="-232.3" font-family="Times,serif" font-size="14.00" fill="#000000">188.88.190.0/23</text>
</g>
<!-- 188.88.190.0/23&#45;&#45;188.88.191.0/24 -->
<g id="edge7" class="edge">
<title>188.88.190.0/23--188.88.191.0/24</title>
<path fill="none" stroke="#000000" d="M386.0562,-218.4551C355.5942,-207.2241 316.552,-192.8298 286.067,-181.5904"/>
</g>
<!-- 188.88.190.0/24 -->
<g id="node27" class="node">
<title>188.88.190.0/24</title>
<polygon fill="none" stroke="#000000" points="381.3047,-145.5 381.3047,-181.5 488.6953,-181.5 488.6953,-145.5 381.3047,-145.5"/>
<text text-anchor="middle" x="435" y="-159.3" font-family="Times,serif" font-size="14.00" fill="#000000">188.88.190.0/24</text>
</g>
<!-- 188.88.190.0/23&#45;&#45;188.88.190.0/24 -->
<g id="edge8" class="edge">
<title>188.88.190.0/23--188.88.190.0/24</title>
<path fill="none" stroke="#000000" d="M435,-218.4551C435,-207.2241 435,-192.8298 435,-181.5904"/>
</g>
<!-- 188.88.188.0/22 -->
<g id="node5" class="node">
<title>188.88.188.0/22</title>
<polygon fill="#dddddd" stroke="#000000" points="523.3047,-291.5 523.3047,-327.5 630.6953,-327.5 630.6953,-291.5 523.3047,-291.5"/>
<text text-anchor="middle" x="577" y="-305.3" font-family="Times,serif" font-size="14.00" fill="#000000">188.88.188.0/22</text>
</g>
<!-- 188.88.188.0/22&#45;&#45;188.88.190.0/23 -->
<g id="edge3" class="edge">
<title>188.88.188.0/22--188.88.190.0/23</title>
<path fill="none" stroke="#000000" d="M541.8989,-291.4551C520.0524,-280.2241 492.0525,-265.8298 470.1895,-254.5904"/>
</g>
<!-- root&#45;empty -->
<!-- 188.88.188.0/22&#45;&#45;root&#45;empty -->
<!-- 188.88.188.0/23 -->
<g id="node24" class="node">
<title>188.88.188.0/23</title>
<polygon fill="none" stroke="#000000" points="665.3047,-218.5 665.3047,-254.5 772.6953,-254.5 772.6953,-218.5 665.3047,-218.5"/>
<text text-anchor="middle" x="719" y="-232.3" font-family="Times,serif" font-size="14.00" fill="#000000">188.88.188.0/23</text>
</g>
<!-- 188.88.188.0/22&#45;&#45;188.88.188.0/23 -->
<g id="edge4" class="edge">
<title>188.88.188.0/22--188.88.188.0/23</title>
<path fill="none" stroke="#000000" d="M612.1011,-291.4551C633.9476,-280.2241 661.9475,-265.8298 683.8105,-254.5904"/>
</g>
<!-- ... -->
<g id="node6" class="node">
<title>...</title>
<text text-anchor="middle" x="577" y="-377.8" font-family="Times,serif" font-size="14.00" fill="#000000">...</text>
</g>
<!-- ...&#45;&#45;188.88.188.0/22 -->
<g id="edge1" class="edge">
<title>...--188.88.188.0/22</title>
<path fill="none" stroke="#000000" d="M577,-363.7052C577,-352.6308 577,-338.5654 577,-327.5378"/>
</g>
<!-- rest3 -->
<g id="node9" class="node">
<title>rest3</title>
<text text-anchor="middle" x="315" y="-13.8" font-family="Times,serif" font-size="14.00" fill="#000000">...</text>
</g>
<!-- rest4 -->
<g id="node10" class="node">
<title>rest4</title>
<text text-anchor="middle" x="459" y="-13.8" font-family="Times,serif" font-size="14.00" fill="#000000">...</text>
</g>
<!-- rest5 -->
<g id="node11" class="node">
<title>rest5</title>
<text text-anchor="middle" x="603" y="-13.8" font-family="Times,serif" font-size="14.00" fill="#000000">...</text>
</g>
<!-- rest6 -->
<g id="node12" class="node">
<title>rest6</title>
<text text-anchor="middle" x="747" y="-13.8" font-family="Times,serif" font-size="14.00" fill="#000000">...</text>
</g>
<!-- rest7 -->
<g id="node13" class="node">
<title>rest7</title>
<text text-anchor="middle" x="891" y="-13.8" font-family="Times,serif" font-size="14.00" fill="#000000">...</text>
</g>
<!-- rest8 -->
<g id="node14" class="node">
<title>rest8</title>
<text text-anchor="middle" x="1035" y="-13.8" font-family="Times,serif" font-size="14.00" fill="#000000">...</text>
</g>
<!-- rest33 -->
<g id="node17" class="node">
<title>rest33</title>
<text text-anchor="middle" x="387" y="-13.8" font-family="Times,serif" font-size="14.00" fill="#000000">...</text>
</g>
<!-- rest44 -->
<g id="node18" class="node">
<title>rest44</title>
<text text-anchor="middle" x="531" y="-13.8" font-family="Times,serif" font-size="14.00" fill="#000000">...</text>
</g>
<!-- rest55 -->
<g id="node19" class="node">
<title>rest55</title>
<text text-anchor="middle" x="675" y="-13.8" font-family="Times,serif" font-size="14.00" fill="#000000">...</text>
</g>
<!-- rest66 -->
<g id="node20" class="node">
<title>rest66</title>
<text text-anchor="middle" x="819" y="-13.8" font-family="Times,serif" font-size="14.00" fill="#000000">...</text>
</g>
<!-- rest77 -->
<g id="node21" class="node">
<title>rest77</title>
<text text-anchor="middle" x="963" y="-13.8" font-family="Times,serif" font-size="14.00" fill="#000000">...</text>
</g>
<!-- rest88 -->
<g id="node22" class="node">
<title>rest88</title>
<text text-anchor="middle" x="1107" y="-13.8" font-family="Times,serif" font-size="14.00" fill="#000000">...</text>
</g>
<!-- 188.88.188.0/24 -->
<g id="node25" class="node">
<title>188.88.188.0/24</title>
<polygon fill="none" stroke="#000000" points="665.3047,-145.5 665.3047,-181.5 772.6953,-181.5 772.6953,-145.5 665.3047,-145.5"/>
<text text-anchor="middle" x="719" y="-159.3" font-family="Times,serif" font-size="14.00" fill="#000000">188.88.188.0/24</text>
</g>
<!-- 188.88.188.0/23&#45;&#45;188.88.188.0/24 -->
<g id="edge5" class="edge">
<title>188.88.188.0/23--188.88.188.0/24</title>
<path fill="none" stroke="#000000" d="M719,-218.4551C719,-207.2241 719,-192.8298 719,-181.5904"/>
</g>
<!-- 188.88.189.0/24 -->
<g id="node26" class="node">
<title>188.88.189.0/24</title>
<polygon fill="none" stroke="#000000" points="846.3047,-145.5 846.3047,-181.5 953.6953,-181.5 953.6953,-145.5 846.3047,-145.5"/>
<text text-anchor="middle" x="900" y="-159.3" font-family="Times,serif" font-size="14.00" fill="#000000">188.88.189.0/24</text>
</g>
<!-- 188.88.188.0/23&#45;&#45;188.88.189.0/24 -->
<g id="edge6" class="edge">
<title>188.88.188.0/23--188.88.189.0/24</title>
<path fill="none" stroke="#000000" d="M763.7416,-218.4551C791.5881,-207.2241 827.2782,-192.8298 855.1458,-181.5904"/>
</g>
<!-- 188.88.188.0/25 -->
<g id="node28" class="node">
<title>188.88.188.0/25</title>
<polygon fill="none" stroke="#000000" points="582.3047,-72.5 582.3047,-108.5 689.6953,-108.5 689.6953,-72.5 582.3047,-72.5"/>
<text text-anchor="middle" x="636" y="-86.3" font-family="Times,serif" font-size="14.00" fill="#000000">188.88.188.0/25</text>
</g>
<!-- 188.88.188.0/24&#45;&#45;188.88.188.0/25 -->
<g id="edge9" class="edge">
<title>188.88.188.0/24--188.88.188.0/25</title>
<path fill="none" stroke="#000000" d="M698.4831,-145.4551C685.7138,-134.2241 669.3476,-119.8298 656.5685,-108.5904"/>
</g>
<!-- 188.88.188.128/25 -->
<g id="node29" class="node">
<title>188.88.188.128/25</title>
<polygon fill="none" stroke="#000000" points="707.3047,-72.5 707.3047,-108.5 828.6953,-108.5 828.6953,-72.5 707.3047,-72.5"/>
<text text-anchor="middle" x="768" y="-86.3" font-family="Times,serif" font-size="14.00" fill="#000000">188.88.188.128/25</text>
</g>
<!-- 188.88.188.0/24&#45;&#45;188.88.188.128/25 -->
<g id="edge10" class="edge">
<title>188.88.188.0/24--188.88.188.128/25</title>
<path fill="none" stroke="#000000" d="M731.1124,-145.4551C738.6509,-134.2241 748.3129,-119.8298 755.8572,-108.5904"/>
</g>
<!-- 188.88.189.0/25 -->
<g id="node30" class="node">
<title>188.88.189.0/25</title>
<polygon fill="none" stroke="#000000" points="846.3047,-72.5 846.3047,-108.5 953.6953,-108.5 953.6953,-72.5 846.3047,-72.5"/>
<text text-anchor="middle" x="900" y="-86.3" font-family="Times,serif" font-size="14.00" fill="#000000">188.88.189.0/25</text>
</g>
<!-- 188.88.189.0/24&#45;&#45;188.88.189.0/25 -->
<g id="edge15" class="edge">
<title>188.88.189.0/24--188.88.189.0/25</title>
<path fill="none" stroke="#000000" d="M900,-145.4551C900,-134.2241 900,-119.8298 900,-108.5904"/>
</g>
<!-- 188.88.189.128/25 -->
<g id="node31" class="node">
<title>188.88.189.128/25</title>
<polygon fill="none" stroke="#000000" points="974.3047,-72.5 974.3047,-108.5 1095.6953,-108.5 1095.6953,-72.5 974.3047,-72.5"/>
<text text-anchor="middle" x="1035" y="-86.3" font-family="Times,serif" font-size="14.00" fill="#000000">188.88.189.128/25</text>
</g>
<!-- 188.88.189.0/24&#45;&#45;188.88.189.128/25 -->
<g id="edge16" class="edge">
<title>188.88.189.0/24--188.88.189.128/25</title>
<path fill="none" stroke="#000000" d="M933.3708,-145.4551C954.1403,-134.2241 980.76,-119.8298 1001.5452,-108.5904"/>
</g>
<!-- 188.88.190.0/25 -->
<g id="node32" class="node">
<title>188.88.190.0/25</title>
<polygon fill="none" stroke="#000000" points="315.3047,-72.5 315.3047,-108.5 422.6953,-108.5 422.6953,-72.5 315.3047,-72.5"/>
<text text-anchor="middle" x="369" y="-86.3" font-family="Times,serif" font-size="14.00" fill="#000000">188.88.190.0/25</text>
</g>
<!-- 188.88.190.0/24&#45;&#45;188.88.190.0/25 -->
<g id="edge21" class="edge">
<title>188.88.190.0/24--188.88.190.0/25</title>
<path fill="none" stroke="#000000" d="M418.6854,-145.4551C408.5314,-134.2241 395.5173,-119.8298 385.3557,-108.5904"/>
</g>
<!-- 188.88.190.128/25 -->
<g id="node33" class="node">
<title>188.88.190.128/25</title>
<polygon fill="none" stroke="#000000" points="440.3047,-72.5 440.3047,-108.5 561.6953,-108.5 561.6953,-72.5 440.3047,-72.5"/>
<text text-anchor="middle" x="501" y="-86.3" font-family="Times,serif" font-size="14.00" fill="#000000">188.88.190.128/25</text>
</g>
<!-- 188.88.190.0/24&#45;&#45;188.88.190.128/25 -->
<g id="edge22" class="edge">
<title>188.88.190.0/24--188.88.190.128/25</title>
<path fill="none" stroke="#000000" d="M451.3146,-145.4551C461.4686,-134.2241 474.4827,-119.8298 484.6443,-108.5904"/>
</g>
<!-- 188.88.188.0/25&#45;&#45;rest5 -->
<g id="edge11" class="edge">
<title>188.88.188.0/25--rest5</title>
<path fill="none" stroke="#000000" d="M627.6727,-72.2052C622.632,-61.1308 616.2298,-47.0654 611.2103,-36.0378"/>
</g>
<!-- 188.88.188.0/25&#45;&#45;rest55 -->
<g id="edge12" class="edge">
<title>188.88.188.0/25--rest55</title>
<path fill="none" stroke="#000000" d="M645.8413,-72.2052C651.7986,-61.1308 659.3648,-47.0654 665.2969,-36.0378"/>
</g>
<!-- 188.88.188.128/25&#45;&#45;rest6 -->
<g id="edge13" class="edge">
<title>188.88.188.128/25--rest6</title>
<path fill="none" stroke="#000000" d="M762.7008,-72.2052C759.4931,-61.1308 755.419,-47.0654 752.2247,-36.0378"/>
</g>
<!-- 188.88.188.128/25&#45;&#45;rest66 -->
<g id="edge14" class="edge">
<title>188.88.188.128/25--rest66</title>
<path fill="none" stroke="#000000" d="M780.8695,-72.2052C788.6597,-61.1308 798.554,-47.0654 806.3113,-36.0378"/>
</g>
<!-- 188.88.189.0/25&#45;&#45;rest7 -->
<g id="edge17" class="edge">
<title>188.88.189.0/25--rest7</title>
<path fill="none" stroke="#000000" d="M897.7289,-72.2052C896.3542,-61.1308 894.6081,-47.0654 893.2392,-36.0378"/>
</g>
<!-- 188.88.189.0/25&#45;&#45;rest77 -->
<g id="edge18" class="edge">
<title>188.88.189.0/25--rest77</title>
<path fill="none" stroke="#000000" d="M915.8976,-72.2052C925.5208,-61.1308 937.7431,-47.0654 947.3258,-36.0378"/>
</g>
<!-- 188.88.189.128/25&#45;&#45;rest8 -->
<g id="edge19" class="edge">
<title>188.88.189.128/25--rest8</title>
<path fill="none" stroke="#000000" d="M1035,-72.2052C1035,-61.1308 1035,-47.0654 1035,-36.0378"/>
</g>
<!-- 188.88.189.128/25&#45;&#45;rest88 -->
<g id="edge20" class="edge">
<title>188.88.189.128/25--rest88</title>
<path fill="none" stroke="#000000" d="M1053.1686,-72.2052C1064.1666,-61.1308 1078.135,-47.0654 1089.0866,-36.0378"/>
</g>
<!-- 188.88.190.0/25&#45;&#45;rest3 -->
<g id="edge23" class="edge">
<title>188.88.190.0/25--rest3</title>
<path fill="none" stroke="#000000" d="M355.3735,-72.2052C347.125,-61.1308 336.6487,-47.0654 328.4351,-36.0378"/>
</g>
<!-- 188.88.190.0/25&#45;&#45;rest33 -->
<g id="edge24" class="edge">
<title>188.88.190.0/25--rest33</title>
<path fill="none" stroke="#000000" d="M373.5422,-72.2052C376.2917,-61.1308 379.7838,-47.0654 382.5216,-36.0378"/>
</g>
<!-- 188.88.190.128/25&#45;&#45;rest4 -->
<g id="edge25" class="edge">
<title>188.88.190.128/25--rest4</title>
<path fill="none" stroke="#000000" d="M490.4016,-72.2052C483.9861,-61.1308 475.8379,-47.0654 469.4495,-36.0378"/>
</g>
<!-- 188.88.190.128/25&#45;&#45;rest44 -->
<g id="edge26" class="edge">
<title>188.88.190.128/25--rest44</title>
<path fill="none" stroke="#000000" d="M508.5703,-72.2052C513.1528,-61.1308 518.9729,-47.0654 523.5361,-36.0378"/>
</g>
</g>
</svg>