<?xml version="1.0" standalone="no"?>
<svg xmlns="http://www.w3.org/2000/svg" xmlns:xlink="http://www.w3.org/1999/xlink" width="866pt" height="418pt" viewBox="0.00 0.00 866.05 417.60">
<g id="graph0" class="graph" transform="translate(4,413.6000061035156) scale(1)" data-name="">
<polygon fill="white" stroke="none" points="-4,4 -4,-413.6 862.05,-413.6 862.05,4 -4,4"/>
<!-- 64.0.0.0/2 -->
<g id="node1" class="node" pointer-events="visible" data-name="64.0.0.0/2">

<polygon fill="none" stroke="black" points="489,-111.9 489,-186.3 584.05,-186.3 584.05,-111.9 489,-111.9"/>
<text text-anchor="start" x="505.39" y="-170.7" font-family="Helvetica,sans-Serif" font-weight="bold" font-size="14.00">64.0.0.0/2</text>
<polyline fill="none" stroke="black" points="489,-161.5 584.05,-161.5"/>
<text text-anchor="start" x="497" y="-144.9" font-family="Helvetica,sans-Serif" font-size="14.00">4200</text>
<polyline fill="none" stroke="black" points="489,-136.7 536.14,-136.7"/>
<text text-anchor="start" x="504.79" y="-120.1" font-family="Helvetica,sans-Serif" font-size="14.00">92</text>
<polyline fill="none" stroke="black" points="536.14,-111.9 536.14,-161.5"/>
<text text-anchor="start" x="544.14" y="-132.9" font-family="Helvetica,sans-Serif" font-size="14.00">2.2%</text>
</g>
<!-- 96.0.0.0/3 -->
<g id="node14" class="node" pointer-events="visible" data-name="96.0.0.0/3">

<polygon fill="none" stroke="black" points="443.84,-0.5 443.84,-74.9 527.22,-74.9 527.22,-0.5 443.84,-0.5"/>
<text text-anchor="start" x="454.39" y="-59.3" font-family="Helvetica,sans-Serif" font-weight="bold" font-size="14.00">96.0.0.0/3</text>
<polyline fill="none" stroke="black" points="443.84,-50.1 527.22,-50.1"/>
<text text-anchor="start" x="451.84" y="-33.5" font-family="Helvetica,sans-Serif" font-size="14.00">420</text>
<polyline fill="none" stroke="black" points="443.84,-25.3 483.2,-25.3"/>
<text text-anchor="start" x="455.73" y="-8.7" font-family="Helvetica,sans-Serif" font-size="14.00">64</text>
<polyline fill="none" stroke="black" points="483.2,-0.5 483.2,-50.1"/>
<text text-anchor="start" x="491.2" y="-21.5" font-family="Helvetica,sans-Serif" font-size="14.00">15%</text>
</g>
<!-- 64.0.0.0/2&#45;&#45;96.0.0.0/3 -->
<g id="edge9" class="edge" data-name="64.0.0.0/2--96.0.0.0/3">

<path fill="none" stroke="black" d="M519.69,-111.98C514.12,-100.03 507.92,-86.73 502.35,-74.79"/>
</g>
<!-- 64.0.0.0/3 -->
<g id="node15" class="node" pointer-events="visible" data-name="64.0.0.0/3">

<polygon fill="#ff8884" stroke="black" points="545,-0.5 545,-74.9 640.05,-74.9 640.05,-0.5 545,-0.5"/>
<text text-anchor="start" x="561.39" y="-59.3" font-family="Helvetica,sans-Serif" font-weight="bold" font-size="14.00">64.0.0.0/3</text>
<polyline fill="none" stroke="black" points="545,-50.1 640.05,-50.1"/>
<text text-anchor="start" x="553" y="-33.5" font-family="Helvetica,sans-Serif" font-size="14.00">3780</text>
<polyline fill="none" stroke="black" points="545,-25.3 592.14,-25.3"/>
<text text-anchor="start" x="560.79" y="-8.7" font-family="Helvetica,sans-Serif" font-size="14.00">28</text>
<polyline fill="none" stroke="black" points="592.14,-0.5 592.14,-50.1"/>
<text text-anchor="start" x="600.14" y="-21.5" font-family="Helvetica,sans-Serif" font-size="14.00">0.7%</text>
</g>
<!-- 64.0.0.0/2&#45;&#45;64.0.0.0/3 -->
<g id="edge10" class="edge" data-name="64.0.0.0/2--64.0.0.0/3">

<path fill="none" stroke="black" d="M555.02,-111.98C561.14,-100.03 567.94,-86.73 574.06,-74.79"/>
</g>
<!-- 160.0.0.0/3 -->
<g id="node2" class="node" pointer-events="visible" data-name="160.0.0.0/3">

<polygon fill="#ff8884" stroke="black" points="226,-0.5 226,-74.9 321.05,-74.9 321.05,-0.5 226,-0.5"/>
<text text-anchor="start" x="238.5" y="-59.3" font-family="Helvetica,sans-Serif" font-weight="bold" font-size="14.00">160.0.0.0/3</text>
<polyline fill="none" stroke="black" points="226,-50.1 321.05,-50.1"/>
<text text-anchor="start" x="234" y="-33.5" font-family="Helvetica,sans-Serif" font-size="14.00">1800</text>
<polyline fill="none" stroke="black" points="226,-25.3 273.14,-25.3"/>
<text text-anchor="start" x="245.68" y="-8.7" font-family="Helvetica,sans-Serif" font-size="14.00">4</text>
<polyline fill="none" stroke="black" points="273.14,-0.5 273.14,-50.1"/>
<text text-anchor="start" x="281.14" y="-21.5" font-family="Helvetica,sans-Serif" font-size="14.00">0.2%</text>
</g>
<!-- 128.0.0.0/1 -->
<g id="node3" class="node" pointer-events="visible" data-name="128.0.0.0/1">

<polygon fill="#ff8884" stroke="black" points="280,-223.3 280,-297.7 375.05,-297.7 375.05,-223.3 280,-223.3"/>
<text text-anchor="start" x="292.5" y="-282.1" font-family="Helvetica,sans-Serif" font-weight="bold" font-size="14.00">128.0.0.0/1</text>
<polyline fill="none" stroke="black" points="280,-272.9 375.05,-272.9"/>
<text text-anchor="start" x="288" y="-256.3" font-family="Helvetica,sans-Serif" font-size="14.00">3000</text>
<polyline fill="none" stroke="black" points="280,-248.1 327.14,-248.1"/>
<text text-anchor="start" x="295.79" y="-231.5" font-family="Helvetica,sans-Serif" font-size="14.00">20</text>
<polyline fill="none" stroke="black" points="327.14,-223.3 327.14,-272.9"/>
<text text-anchor="start" x="335.14" y="-244.3" font-family="Helvetica,sans-Serif" font-size="14.00">0.7%</text>
</g>
<!-- 192.0.0.0/2 -->
<g id="node6" class="node" pointer-events="visible" data-name="192.0.0.0/2">

<polygon fill="none" stroke="black" points="113,-111.9 113,-186.3 208.05,-186.3 208.05,-111.9 113,-111.9"/>
<text text-anchor="start" x="125.5" y="-170.7" font-family="Helvetica,sans-Serif" font-weight="bold" font-size="14.00">192.0.0.0/2</text>
<polyline fill="none" stroke="black" points="113,-161.5 208.05,-161.5"/>
<text text-anchor="start" x="121" y="-144.9" font-family="Helvetica,sans-Serif" font-size="14.00">1200</text>
<polyline fill="none" stroke="black" points="113,-136.7 160.14,-136.7"/>
<text text-anchor="start" x="128.79" y="-120.1" font-family="Helvetica,sans-Serif" font-size="14.00">16</text>
<polyline fill="none" stroke="black" points="160.14,-111.9 160.14,-161.5"/>
<text text-anchor="start" x="168.14" y="-132.9" font-family="Helvetica,sans-Serif" font-size="14.00">1.3%</text>
</g>
<!-- 128.0.0.0/1&#45;&#45;192.0.0.0/2 -->
<g id="edge5" class="edge" data-name="128.0.0.0/1--192.0.0.0/2">

<path fill="none" stroke="black" d="M280.12,-228.44C257.55,-213.66 230.63,-196.03 208.05,-181.23"/>
</g>
<!-- 128.0.0.0/2 -->
<g id="node8" class="node" pointer-events="visible" data-name="128.0.0.0/2">

<polygon fill="#ff8884" stroke="black" points="280,-111.9 280,-186.3 375.05,-186.3 375.05,-111.9 280,-111.9"/>
<text text-anchor="start" x="292.5" y="-170.7" font-family="Helvetica,sans-Serif" font-weight="bold" font-size="14.00">128.0.0.0/2</text>
<polyline fill="none" stroke="black" points="280,-161.5 375.05,-161.5"/>
<text text-anchor="start" x="288" y="-144.9" font-family="Helvetica,sans-Serif" font-size="14.00">1800</text>
<polyline fill="none" stroke="black" points="280,-136.7 327.14,-136.7"/>
<text text-anchor="start" x="299.68" y="-120.1" font-family="Helvetica,sans-Serif" font-size="14.00">4</text>
<polyline fill="none" stroke="black" points="327.14,-111.9 327.14,-161.5"/>
<text text-anchor="start" x="335.14" y="-132.9" font-family="Helvetica,sans-Serif" font-size="14.00">0.2%</text>
</g>
<!-- 128.0.0.0/1&#45;&#45;128.0.0.0/2 -->
<g id="edge6" class="edge" data-name="128.0.0.0/1--128.0.0.0/2">

<path fill="none" stroke="black" d="M327.53,-223.38C327.53,-211.43 327.53,-198.13 327.53,-186.19"/>
</g>
<!-- 0.0.0.0/1 -->
<g id="node4" class="node" pointer-events="visible" data-name="0.0.0.0/1">

<polygon fill="none" stroke="black" points="489,-223.3 489,-297.7 584.05,-297.7 584.05,-223.3 489,-223.3"/>
<text text-anchor="start" x="509.28" y="-282.1" font-family="Helvetica,sans-Serif" font-weight="bold" font-size="14.00">0.0.0.0/1</text>
<polyline fill="none" stroke="black" points="489,-272.9 584.05,-272.9"/>
<text text-anchor="start" x="497" y="-256.3" font-family="Helvetica,sans-Serif" font-size="14.00">7000</text>
<polyline fill="none" stroke="black" points="489,-248.1 536.14,-248.1"/>
<text text-anchor="start" x="500.89" y="-231.5" font-family="Helvetica,sans-Serif" font-size="14.00">230</text>
<polyline fill="none" stroke="black" points="536.14,-223.3 536.14,-272.9"/>
<text text-anchor="start" x="544.14" y="-244.3" font-family="Helvetica,sans-Serif" font-size="14.00">3.3%</text>
</g>
<!-- 0.0.0.0/1&#45;&#45;64.0.0.0/2 -->
<g id="edge3" class="edge" data-name="0.0.0.0/1--64.0.0.0/2">

<path fill="none" stroke="black" d="M536.53,-223.38C536.53,-211.43 536.53,-198.13 536.53,-186.19"/>
</g>
<!-- 0.0.0.0/2 -->
<g id="node10" class="node" pointer-events="visible" data-name="0.0.0.0/2">

<polygon fill="#5fe8fd" stroke="black" points="654,-111.9 654,-186.3 749.05,-186.3 749.05,-111.9 654,-111.9"/>
<text text-anchor="start" x="674.28" y="-170.7" font-family="Helvetica,sans-Serif" font-weight="bold" font-size="14.00">0.0.0.0/2</text>
<polyline fill="none" stroke="black" points="654,-161.5 749.05,-161.5"/>
<text text-anchor="start" x="662" y="-144.9" font-family="Helvetica,sans-Serif" font-size="14.00">2800</text>
<polyline fill="none" stroke="black" points="654,-136.7 701.14,-136.7"/>
<text text-anchor="start" x="665.89" y="-120.1" font-family="Helvetica,sans-Serif" font-size="14.00">138</text>
<polyline fill="none" stroke="black" points="701.14,-111.9 701.14,-161.5"/>
<text text-anchor="start" x="709.14" y="-132.9" font-family="Helvetica,sans-Serif" font-size="14.00">4.9%</text>
</g>
<!-- 0.0.0.0/1&#45;&#45;0.0.0.0/2 -->
<g id="edge4" class="edge" data-name="0.0.0.0/1--0.0.0.0/2">

<path fill="none" stroke="black" d="M583.81,-228.15C605.9,-213.5 632.14,-196.1 654.24,-181.45"/>
</g>
<!-- 224.0.0.0/3 -->
<g id="node5" class="node" pointer-events="visible" data-name="224.0.0.0/3">

<polygon fill="#ff8884" stroke="black" points="0,-0.5 0,-74.9 95.05,-74.9 95.05,-0.5 0,-0.5"/>
<text text-anchor="start" x="12.5" y="-59.3" font-family="Helvetica,sans-Serif" font-weight="bold" font-size="14.00">224.0.0.0/3</text>
<polyline fill="none" stroke="black" points="0,-50.1 95.05,-50.1"/>
<text text-anchor="start" x="8" y="-33.5" font-family="Helvetica,sans-Serif" font-size="14.00">1080</text>
<polyline fill="none" stroke="black" points="0,-25.3 47.14,-25.3"/>
<text text-anchor="start" x="19.68" y="-8.7" font-family="Helvetica,sans-Serif" font-size="14.00">2</text>
<polyline fill="none" stroke="black" points="47.14,-0.5 47.14,-50.1"/>
<text text-anchor="start" x="55.14" y="-21.5" font-family="Helvetica,sans-Serif" font-size="14.00">0.2%</text>
</g>
<!-- 192.0.0.0/2&#45;&#45;224.0.0.0/3 -->
<g id="edge13" class="edge" data-name="192.0.0.0/2--224.0.0.0/3">

<path fill="none" stroke="black" d="M123.21,-111.98C110.87,-100.03 97.14,-86.73 84.8,-74.79"/>
</g>
<!-- 192.0.0.0/3 -->
<g id="node7" class="node" pointer-events="visible" data-name="192.0.0.0/3">

<polygon fill="none" stroke="black" points="113,-0.5 113,-74.9 208.05,-74.9 208.05,-0.5 113,-0.5"/>
<text text-anchor="start" x="125.5" y="-59.3" font-family="Helvetica,sans-Serif" font-weight="bold" font-size="14.00">192.0.0.0/3</text>
<polyline fill="none" stroke="black" points="113,-50.1 208.05,-50.1"/>
<text text-anchor="start" x="121" y="-33.5" font-family="Helvetica,sans-Serif" font-size="14.00">120</text>
<polyline fill="none" stroke="black" points="113,-25.3 152.36,-25.3"/>
<text text-anchor="start" x="124.89" y="-8.7" font-family="Helvetica,sans-Serif" font-size="14.00">14</text>
<polyline fill="none" stroke="black" points="152.36,-0.5 152.36,-50.1"/>
<text text-anchor="start" x="160.36" y="-21.5" font-family="Helvetica,sans-Serif" font-size="14.00">11.7%</text>
</g>
<!-- 192.0.0.0/2&#45;&#45;192.0.0.0/3 -->
<g id="edge14" class="edge" data-name="192.0.0.0/2--192.0.0.0/3">

<path fill="none" stroke="black" d="M160.53,-111.98C160.53,-100.03 160.53,-86.73 160.53,-74.79"/>
</g>
<!-- 128.0.0.0/2&#45;&#45;160.0.0.0/3 -->
<g id="edge11" class="edge" data-name="128.0.0.0/2--160.0.0.0/3">

<path fill="none" stroke="black" d="M309.7,-111.98C303.8,-100.03 297.24,-86.73 291.34,-74.79"/>
</g>
<!-- 128.0.0.0/3 -->
<g id="node13" class="node" pointer-events="visible" data-name="128.0.0.0/3">

<polygon fill="#d2d1d1" stroke="white" points="339.5,-0.5 339.5,-74.9 425.56,-74.9 425.56,-0.5 339.5,-0.5"/>
<text text-anchor="start" x="347.5" y="-59.3" font-family="Helvetica,sans-Serif" font-weight="bold" font-size="14.00" fill="white">128.0.0.0/3</text>
<polyline fill="none" stroke="white" points="339.5,-50.1 425.56,-50.1"/>
<text text-anchor="start" x="353.5" y="-33.5" font-family="Helvetica,sans-Serif" font-size="14.00" fill="white">0</text>
<polyline fill="none" stroke="white" points="339.5,-25.3 375.28,-25.3"/>
<text text-anchor="start" x="353.5" y="-8.7" font-family="Helvetica,sans-Serif" font-size="14.00" fill="white">0</text>
<polyline fill="none" stroke="white" points="375.28,-0.5 375.28,-50.1"/>
<text text-anchor="start" x="389.28" y="-21.5" font-family="Helvetica,sans-Serif" font-size="14.00" fill="white">--%</text>
</g>
<!-- 128.0.0.0/2&#45;&#45;128.0.0.0/3 -->
<g id="edge12" class="edge" data-name="128.0.0.0/2--128.0.0.0/3">

<path fill="none" stroke="black" d="M345.69,-111.98C351.7,-100.03 358.38,-86.73 364.38,-74.79"/>
</g>
<!-- 0.0.0.0/3 -->
<g id="node9" class="node" pointer-events="visible" data-name="0.0.0.0/3">

<polygon fill="#5fe8fd" stroke="black" points="657.89,-0.5 657.89,-74.9 745.16,-74.9 745.16,-0.5 657.89,-0.5"/>
<text text-anchor="start" x="674.28" y="-59.3" font-family="Helvetica,sans-Serif" font-weight="bold" font-size="14.00">0.0.0.0/3</text>
<polyline fill="none" stroke="black" points="657.89,-50.1 745.16,-50.1"/>
<text text-anchor="start" x="665.89" y="-33.5" font-family="Helvetica,sans-Serif" font-size="14.00">840</text>
<polyline fill="none" stroke="black" points="657.89,-25.3 697.25,-25.3"/>
<text text-anchor="start" x="669.79" y="-8.7" font-family="Helvetica,sans-Serif" font-size="14.00">41</text>
<polyline fill="none" stroke="black" points="697.25,-0.5 697.25,-50.1"/>
<text text-anchor="start" x="705.25" y="-21.5" font-family="Helvetica,sans-Serif" font-size="14.00">4.9%</text>
</g>
<!-- 0.0.0.0/2&#45;&#45;0.0.0.0/3 -->
<g id="edge7" class="edge" data-name="0.0.0.0/2--0.0.0.0/3">

<path fill="none" stroke="black" d="M701.53,-111.98C701.53,-100.03 701.53,-86.73 701.53,-74.79"/>
</g>
<!-- 32.0.0.0/3 -->
<g id="node12" class="node" pointer-events="visible" data-name="32.0.0.0/3">

<polygon fill="#5fe8fd" stroke="black" points="763,-0.5 763,-74.9 858.05,-74.9 858.05,-0.5 763,-0.5"/>
<text text-anchor="start" x="779.39" y="-59.3" font-family="Helvetica,sans-Serif" font-weight="bold" font-size="14.00">32.0.0.0/3</text>
<polyline fill="none" stroke="black" points="763,-50.1 858.05,-50.1"/>
<text text-anchor="start" x="771" y="-33.5" font-family="Helvetica,sans-Serif" font-size="14.00">1960</text>
<polyline fill="none" stroke="black" points="763,-25.3 810.14,-25.3"/>
<text text-anchor="start" x="778.79" y="-8.7" font-family="Helvetica,sans-Serif" font-size="14.00">97</text>
<polyline fill="none" stroke="black" points="810.14,-0.5 810.14,-50.1"/>
<text text-anchor="start" x="818.14" y="-21.5" font-family="Helvetica,sans-Serif" font-size="14.00">4.9%</text>
</g>
<!-- 0.0.0.0/2&#45;&#45;32.0.0.0/3 -->
<g id="edge8" class="edge" data-name="0.0.0.0/2--32.0.0.0/3">

<path fill="none" stroke="black" d="M737.52,-111.98C749.43,-100.03 762.67,-86.73 774.57,-74.79"/>
</g>
<!-- 0.0.0.0/0 -->
<g id="node11" class="node" pointer-events="visible" data-name="0.0.0.0/0">

<polygon fill="none" stroke="black" points="382.11,-334.7 382.11,-409.1 484.95,-409.1 484.95,-334.7 382.11,-334.7"/>
<text text-anchor="start" x="406.28" y="-393.5" font-family="Helvetica,sans-Serif" font-weight="bold" font-size="14.00">0.0.0.0/0</text>
<polyline fill="none" stroke="black" points="382.11,-384.3 484.95,-384.3"/>
<text text-anchor="start" x="390.11" y="-367.7" font-family="Helvetica,sans-Serif" font-size="14.00">10000</text>
<polyline fill="none" stroke="black" points="382.11,-359.5 437.04,-359.5"/>
<text text-anchor="start" x="397.89" y="-342.9" font-family="Helvetica,sans-Serif" font-size="14.00">250</text>
<polyline fill="none" stroke="black" points="437.04,-334.7 437.04,-384.3"/>
<text text-anchor="start" x="445.04" y="-355.7" font-family="Helvetica,sans-Serif" font-size="14.00">2.5%</text>
</g>
<!-- 0.0.0.0/0&#45;&#45;128.0.0.0/1 -->
<g id="edge1" class="edge" data-name="0.0.0.0/0--128.0.0.0/1">

<path fill="none" stroke="black" d="M398.53,-334.78C386.95,-322.83 374.07,-309.53 362.49,-297.59"/>
</g>
<!-- 0.0.0.0/0&#45;&#45;0.0.0.0/1 -->
<g id="edge2" class="edge" data-name="0.0.0.0/0--0.0.0.0/1">

<path fill="none" stroke="black" d="M467.54,-334.78C478.79,-322.83 491.3,-309.53 502.55,-297.59"/>
</g>
</g>
</svg>