<?xml version="1.0" standalone="no"?>
<svg xmlns="http://www.w3.org/2000/svg" xmlns:xlink="http://www.w3.org/1999/xlink" width="1137pt" height="713pt" viewBox="0.00 0.00 1137.21 713.40">
<g id="graph0" class="graph" transform="translate(4,709.4000244140625) scale(1)" data-name="">
<polygon fill="white" stroke="none" points="-4,4 -4,-709.4 1133.21,-709.4 1133.21,4 -4,4" style=""/>
<!-- 37.245.200.0/21 -->
<g id="node1" class="node" pointer-events="visible" data-name="37.245.200.0/21">

<polygon fill="#ff8884" stroke="black" points="135,-334.7 135,-409.1 252.21,-409.1 252.21,-334.7 135,-334.7" style=""/>
<text text-anchor="start" x="143" y="-393.5" font-family="Helvetica,sans-Serif" font-weight="bold" font-size="14.00" style="">37.245.200.0/21</text>
<polyline fill="none" stroke="black" points="135,-384.3 252.21,-384.3" style=""/>
<text text-anchor="start" x="156.5" y="-367.7" font-family="Helvetica,sans-Serif" font-size="14.00" style="">174</text>
<polyline fill="none" stroke="black" points="201.36,-359.5 201.36,-384.3" style=""/>
<text text-anchor="start" x="222.86" y="-367.7" font-family="Helvetica,sans-Serif" font-size="14.00" style="">1</text>
<polyline fill="none" stroke="black" points="135,-359.5 252.21,-359.5" style=""/>
<text text-anchor="start" x="173.5" y="-342.9" font-family="Helvetica,sans-Serif" font-size="14.00" style="">0.00%</text>
</g>
<!-- 37.245.192.0/20 -->
<g id="node2" class="node" pointer-events="visible" data-name="37.245.192.0/20">

<polygon fill="#ff8884" stroke="black" points="270,-446.1 270,-520.5 387.21,-520.5 387.21,-446.1 270,-446.1" style=""/>
<text text-anchor="start" x="278" y="-504.9" font-family="Helvetica,sans-Serif" font-weight="bold" font-size="14.00" style="">37.245.192.0/20</text>
<polyline fill="none" stroke="black" points="270,-495.7 387.21,-495.7" style=""/>
<text text-anchor="start" x="291.5" y="-479.1" font-family="Helvetica,sans-Serif" font-size="14.00" style="">677</text>
<polyline fill="none" stroke="black" points="336.36,-470.9 336.36,-495.7" style=""/>
<text text-anchor="start" x="357.86" y="-479.1" font-family="Helvetica,sans-Serif" font-size="14.00" style="">7</text>
<polyline fill="none" stroke="black" points="270,-470.9 387.21,-470.9" style=""/>
<text text-anchor="start" x="308.5" y="-454.3" font-family="Helvetica,sans-Serif" font-size="14.00" style="">0.89%</text>
</g>
<!-- 37.245.192.0/20&#45;&#45;37.245.200.0/21 -->
<g id="edge1" class="edge" data-name="37.245.192.0/20--37.245.200.0/21">

<path fill="none" stroke="black" d="M284.02,-446.18C269.28,-434.23 252.88,-420.93 238.13,-408.99" style=""/>
</g>
<!-- 37.245.192.0/21 -->
<g id="node21" class="node" pointer-events="visible" data-name="37.245.192.0/21">

<polygon fill="#ff8884" stroke="black" points="270,-334.7 270,-409.1 387.21,-409.1 387.21,-334.7 270,-334.7" style=""/>
<text text-anchor="start" x="278" y="-393.5" font-family="Helvetica,sans-Serif" font-weight="bold" font-size="14.00" style="">37.245.192.0/21</text>
<polyline fill="none" stroke="black" points="270,-384.3 387.21,-384.3" style=""/>
<text text-anchor="start" x="291.5" y="-367.7" font-family="Helvetica,sans-Serif" font-size="14.00" style="">503</text>
<polyline fill="none" stroke="black" points="336.36,-359.5 336.36,-384.3" style=""/>
<text text-anchor="start" x="357.86" y="-367.7" font-family="Helvetica,sans-Serif" font-size="14.00" style="">6</text>
<polyline fill="none" stroke="black" points="270,-359.5 387.21,-359.5" style=""/>
<text text-anchor="start" x="308.5" y="-342.9" font-family="Helvetica,sans-Serif" font-size="14.00" style="">1.19%</text>
</g>
<!-- 37.245.192.0/20&#45;&#45;37.245.192.0/21 -->
<g id="edge19" class="edge" data-name="37.245.192.0/20--37.245.192.0/21">

<path fill="none" stroke="black" d="M328.6,-446.18C328.6,-434.23 328.6,-420.93 328.6,-408.99" style=""/>
</g>
<!-- 37.245.212.0/22 -->
<!-- 37.245.208.0/21 -->
<!-- 37.245.208.0/21&#45;&#45;37.245.212.0/22 -->
<!-- 37.245.208.0/22 -->
<!-- 37.245.208.0/21&#45;&#45;37.245.208.0/22 -->
<!-- 37.245.216.0/22 -->
<!-- 37.245.216.0/21 -->
<!-- 37.245.216.0/21&#45;&#45;37.245.216.0/22 -->
<!-- 37.245.220.0/22 -->
<!-- 37.245.216.0/21&#45;&#45;37.245.220.0/22 -->
<!-- 37.245.192.0/23 -->
<g id="node8" class="node" pointer-events="visible" data-name="37.245.192.0/23">

<polygon fill="#ff8884" stroke="black" points="0,-111.9 0,-186.3 117.21,-186.3 117.21,-111.9 0,-111.9" style=""/>
<text text-anchor="start" x="8" y="-170.7" font-family="Helvetica,sans-Serif" font-weight="bold" font-size="14.00" style="">37.245.192.0/23</text>
<polyline fill="none" stroke="black" points="0,-161.5 117.21,-161.5" style=""/>
<text text-anchor="start" x="21.5" y="-144.9" font-family="Helvetica,sans-Serif" font-size="14.00" style="">123</text>
<polyline fill="none" stroke="black" points="66.36,-136.7 66.36,-161.5" style=""/>
<text text-anchor="start" x="87.86" y="-144.9" font-family="Helvetica,sans-Serif" font-size="14.00" style="">2</text>
<polyline fill="none" stroke="black" points="0,-136.7 117.21,-136.7" style=""/>
<text text-anchor="start" x="38.5" y="-120.1" font-family="Helvetica,sans-Serif" font-size="14.00" style="">0.81%</text>
</g>
<!-- 37.245.192.0/22 -->
<g id="node9" class="node" pointer-events="visible" data-name="37.245.192.0/22">

<polygon fill="#ff8884" stroke="black" points="135,-223.3 135,-297.7 252.21,-297.7 252.21,-223.3 135,-223.3" style=""/>
<text text-anchor="start" x="143" y="-282.1" font-family="Helvetica,sans-Serif" font-weight="bold" font-size="14.00" style="">37.245.192.0/22</text>
<polyline fill="none" stroke="black" points="135,-272.9 252.21,-272.9" style=""/>
<text text-anchor="start" x="156.5" y="-256.3" font-family="Helvetica,sans-Serif" font-size="14.00" style="">246</text>
<polyline fill="none" stroke="black" points="201.36,-248.1 201.36,-272.9" style=""/>
<text text-anchor="start" x="222.86" y="-256.3" font-family="Helvetica,sans-Serif" font-size="14.00" style="">4</text>
<polyline fill="none" stroke="black" points="135,-248.1 252.21,-248.1" style=""/>
<text text-anchor="start" x="173.5" y="-231.5" font-family="Helvetica,sans-Serif" font-size="14.00" style="">1.22%</text>
</g>
<!-- 37.245.192.0/22&#45;&#45;37.245.192.0/23 -->
<g id="edge5" class="edge" data-name="37.245.192.0/22--37.245.192.0/23">

<path fill="none" stroke="black" d="M149.02,-223.38C134.28,-211.43 117.88,-198.13 103.13,-186.19" style=""/>
</g>
<!-- 37.245.194.0/23 -->
<g id="node10" class="node" pointer-events="visible" data-name="37.245.194.0/23">

<polygon fill="#ff8884" stroke="black" points="135,-111.9 135,-186.3 252.21,-186.3 252.21,-111.9 135,-111.9" style=""/>
<text text-anchor="start" x="143" y="-170.7" font-family="Helvetica,sans-Serif" font-weight="bold" font-size="14.00" style="">37.245.194.0/23</text>
<polyline fill="none" stroke="black" points="135,-161.5 252.21,-161.5" style=""/>
<text text-anchor="start" x="156.5" y="-144.9" font-family="Helvetica,sans-Serif" font-size="14.00" style="">123</text>
<polyline fill="none" stroke="black" points="201.36,-136.7 201.36,-161.5" style=""/>
<text text-anchor="start" x="222.86" y="-144.9" font-family="Helvetica,sans-Serif" font-size="14.00" style="">2</text>
<polyline fill="none" stroke="black" points="135,-136.7 252.21,-136.7" style=""/>
<text text-anchor="start" x="173.5" y="-120.1" font-family="Helvetica,sans-Serif" font-size="14.00" style="">1.63%</text>
</g>
<!-- 37.245.192.0/22&#45;&#45;37.245.194.0/23 -->
<g id="edge6" class="edge" data-name="37.245.192.0/22--37.245.194.0/23">

<path fill="none" stroke="black" d="M193.6,-223.38C193.6,-211.43 193.6,-198.13 193.6,-186.19" style=""/>
</g>
<!-- 37.245.196.0/23 -->
<g id="node11" class="node" pointer-events="visible" data-name="37.245.196.0/23">

<polygon fill="#ff8884" stroke="black" points="270,-111.9 270,-186.3 387.21,-186.3 387.21,-111.9 270,-111.9" style=""/>
<text text-anchor="start" x="278" y="-170.7" font-family="Helvetica,sans-Serif" font-weight="bold" font-size="14.00" style="">37.245.196.0/23</text>
<polyline fill="none" stroke="black" points="270,-161.5 387.21,-161.5" style=""/>
<text text-anchor="start" x="291.5" y="-144.9" font-family="Helvetica,sans-Serif" font-size="14.00" style="">153</text>
<polyline fill="none" stroke="black" points="336.36,-136.7 336.36,-161.5" style=""/>
<text text-anchor="start" x="357.86" y="-144.9" font-family="Helvetica,sans-Serif" font-size="14.00" style="">2</text>
<polyline fill="none" stroke="black" points="270,-136.7 387.21,-136.7" style=""/>
<text text-anchor="start" x="308.5" y="-120.1" font-family="Helvetica,sans-Serif" font-size="14.00" style="">0.65%</text>
</g>
<!-- 37.245.196.0/22 -->
<g id="node12" class="node" pointer-events="visible" data-name="37.245.196.0/22">

<polygon fill="#ff8884" stroke="black" points="270,-223.3 270,-297.7 387.21,-297.7 387.21,-223.3 270,-223.3" style=""/>
<text text-anchor="start" x="278" y="-282.1" font-family="Helvetica,sans-Serif" font-weight="bold" font-size="14.00" style="">37.245.196.0/22</text>
<polyline fill="none" stroke="black" points="270,-272.9 387.21,-272.9" style=""/>
<text text-anchor="start" x="291.5" y="-256.3" font-family="Helvetica,sans-Serif" font-size="14.00" style="">257</text>
<polyline fill="none" stroke="black" points="336.36,-248.1 336.36,-272.9" style=""/>
<text text-anchor="start" x="357.86" y="-256.3" font-family="Helvetica,sans-Serif" font-size="14.00" style="">2</text>
<polyline fill="none" stroke="black" points="270,-248.1 387.21,-248.1" style=""/>
<text text-anchor="start" x="308.5" y="-231.5" font-family="Helvetica,sans-Serif" font-size="14.00" style="">1.17%</text>
</g>
<!-- 37.245.196.0/22&#45;&#45;37.245.196.0/23 -->
<g id="edge7" class="edge" data-name="37.245.196.0/22--37.245.196.0/23">

<path fill="none" stroke="black" d="M328.6,-223.38C328.6,-211.43 328.6,-198.13 328.6,-186.19" style=""/>
</g>
<!-- 37.245.198.0/23 -->
<g id="node13" class="node" pointer-events="visible" data-name="37.245.198.0/23">

<polygon fill="#ff8884" stroke="black" points="405,-111.9 405,-186.3 522.21,-186.3 522.21,-111.9 405,-111.9" style=""/>
<text text-anchor="start" x="413" y="-170.7" font-family="Helvetica,sans-Serif" font-weight="bold" font-size="14.00" style="">37.245.198.0/23</text>
<polyline fill="none" stroke="black" points="405,-161.5 522.21,-161.5" style=""/>
<text text-anchor="start" x="426.5" y="-144.9" font-family="Helvetica,sans-Serif" font-size="14.00" style="">104</text>
<polyline fill="none" stroke="black" points="471.36,-136.7 471.36,-161.5" style=""/>
<text text-anchor="start" x="492.86" y="-144.9" font-family="Helvetica,sans-Serif" font-size="14.00" style="">0</text>
<polyline fill="none" stroke="black" points="405,-136.7 522.21,-136.7" style=""/>
<text text-anchor="start" x="443.5" y="-120.1" font-family="Helvetica,sans-Serif" font-size="14.00" style="">1.92%</text>
</g>
<!-- 37.245.196.0/22&#45;&#45;37.245.198.0/23 -->
<g id="edge8" class="edge" data-name="37.245.196.0/22--37.245.198.0/23">

<path fill="none" stroke="black" d="M373.18,-223.38C387.93,-211.43 404.33,-198.13 419.07,-186.19" style=""/>
</g>
<!-- 37.245.223.0/24 -->
<!-- 37.245.222.0/23 -->
<!-- 37.245.222.0/23&#45;&#45;37.245.223.0/24 -->
<!-- 37.245.222.0/24 -->
<!-- 37.245.222.0/23&#45;&#45;37.245.222.0/24 -->
<!-- 37.245.221.0/24 -->
<!-- 37.245.220.0/23 -->
<!-- 37.245.220.0/23&#45;&#45;37.245.221.0/24 -->
<!-- 37.245.220.0/24 -->
<!-- 37.245.220.0/23&#45;&#45;37.245.220.0/24 -->
<!-- 37.245.220.0/22&#45;&#45;37.245.222.0/23 -->
<!-- 37.245.220.0/22&#45;&#45;37.245.220.0/23 -->
<!-- 37.245.192.0/21&#45;&#45;37.245.192.0/22 -->
<g id="edge16" class="edge" data-name="37.245.192.0/21--37.245.192.0/22">

<path fill="none" stroke="black" d="M284.02,-334.78C269.28,-322.83 252.88,-309.53 238.13,-297.59" style=""/>
</g>
<!-- 37.245.192.0/21&#45;&#45;37.245.196.0/22 -->
<g id="edge17" class="edge" data-name="37.245.192.0/21--37.245.196.0/22">

<path fill="none" stroke="black" d="M328.6,-334.78C328.6,-322.83 328.6,-309.53 328.6,-297.59" style=""/>
</g>
<!-- 37.245.208.0/20 -->
<!-- 37.245.208.0/20&#45;&#45;37.245.208.0/21 -->
<!-- 37.245.208.0/20&#45;&#45;37.245.216.0/21 -->
<!-- 37.245.192.0/19 -->
<g id="node23" class="node" pointer-events="visible" data-name="37.245.192.0/19">

<polygon fill="#ff8884" stroke="black" points="337,-557.5 337,-631.9 454.21,-631.9 454.21,-557.5 337,-557.5" style=""/>
<text text-anchor="start" x="345" y="-616.3" font-family="Helvetica,sans-Serif" font-weight="bold" font-size="14.00" style="">37.245.192.0/19</text>
<polyline fill="none" stroke="black" points="337,-607.1 454.21,-607.1" style=""/>
<text text-anchor="start" x="354.5" y="-590.5" font-family="Helvetica,sans-Serif" font-size="14.00" style="">1637</text>
<polyline fill="none" stroke="black" points="403.14,-582.3 403.14,-607.1" style=""/>
<text text-anchor="start" x="420.64" y="-590.5" font-family="Helvetica,sans-Serif" font-size="14.00" style="">30</text>
<polyline fill="none" stroke="black" points="337,-582.3 454.21,-582.3" style=""/>
<text text-anchor="start" x="371.5" y="-565.7" font-family="Helvetica,sans-Serif" font-size="14.00" style="">27.92%</text>
</g>
<!-- 37.245.192.0/19&#45;&#45;37.245.192.0/20 -->
<g id="edge22" class="edge" data-name="37.245.192.0/19--37.245.192.0/20">

<path fill="none" stroke="black" d="M373.48,-557.58C366.16,-545.63 358.02,-532.33 350.7,-520.39" style=""/>
</g>
<!-- 37.245.192.0/19&#45;&#45;37.245.208.0/20 -->
<!-- 37.245.192.0/18 -->
<g id="node24" class="node" pointer-events="visible" data-name="37.245.192.0/18">

<polygon fill="none" stroke="black" points="337,-668.9 337,-704.9 454.21,-704.9 454.21,-668.9 337,-668.9" style=""/>
<text text-anchor="middle" x="395.6" y="-682.7" font-family="Helvetica,sans-Serif" font-size="14.00" style="">37.245.192.0/18</text>
</g>
<!-- 37.245.192.0/18&#45;&#45;37.245.192.0/19 -->
<g id="edge23" class="edge" data-name="37.245.192.0/18--37.245.192.0/19">

<path fill="none" stroke="black" d="M395.6,-668.93C395.6,-658.42 395.6,-644.51 395.6,-631.64" style=""/>
</g>
</g>
</svg>